<svg enable-background="new 0 0 444 444" viewBox="0 0 444 444" xmlns="http://www.w3.org/2000/svg"><path d="m343.2 254.1c-80.8 0-161.7 0-243.4 0v18.4 11c0 6.9-3.1 11.9-9.4 14.6-6.4 2.8-12 1-16.9-3.8-2.3-2.2-4.5-4.5-6.7-6.7-17.2-17.2-34.4-34.4-51.6-51.6-8.8-8.8-8.8-16.3-.2-25 19.4-19.5 38.9-38.9 58.3-58.4 5-5 10.9-6.7 17.3-3.8 6.2 2.7 9.2 7.9 9.1 14.8v17 12.2h243.9c.1-1.8.2-3.6.2-5.4 0-8.5-.1-17 .1-25.5.1-6.3 3.5-10.8 9.2-13.2 5.4-2.3 10.8-1.6 15.4 2.4 1 .9 2 1.8 2.9 2.7 19.1 19.1 38.2 38.2 57.3 57.3 8.4 8.4 8.4 16.2-.1 24.7-19.3 19.3-38.6 38.7-58 58-7.2 7.2-16.4 7.8-22.4.8-2.5-2.9-4-7.4-4.2-11.2-.6-9.3-.3-18.7-.4-28 .2-.4-.1-.7-.4-1.3z"/></svg>